<svg height="24" width="24" xmlns="http://www.w3.org/2000/svg">
  <g fill="none" fill-rule="evenodd">
    <path d="M1 2.002v18.996C1 21.55 1.451 22 1.99 22h3.02A.99.99 0 0 0 6 20.998V2.002C6 1.45 5.549 1 5.01 1H1.99A.99.99 0 0 0 1 2.002zm6 0v18.996C7 21.55 7.451 22 7.99 22h3.02a.99.99 0 0 0 .99-1.002V2.002C12 1.45 11.549 1 11.01 1H7.99A.99.99 0 0 0 7 2.002zm5.627.971l4.916 18.348c.144.535.695.852 1.217.712l2.915-.781a.99.99 0 0 0 .698-1.225L17.457 1.679A1.001 1.001 0 0 0 16.24.967l-2.915.781a.99.99 0 0 0-.698 1.225z" fill="#000"/>
  </g>
</svg>
