<svg height="512" width="512" xmlns="http://www.w3.org/2000/svg">
  <path d="M437.018 74.985C390.661 28.631 326.734 0 256.003 0 185.266 0 121.34 28.631 74.993 74.985 28.631 121.337 0 185.266 0 255.998c0 70.734 28.631 134.663 74.993 181.012C121.34 483.367 185.266 512 256.003 512c70.731 0 134.658-28.633 181.015-74.99C483.369 390.661 512 326.732 512 255.998c0-70.732-28.631-134.661-74.982-181.013z"/>
  <path clip-rule="evenodd" d="M140.475 258.408v113.116h53.864V217.443h-53.864v40.965zm229.779 6.379c-3.549-29.201-16.867-47.344-56.277-47.344-23.107 0-38.698 8.507-45.216 20.839h-.712v-20.839h-42.954v154.081h44.938v-76.399c0-20.134 3.969-39.549 28.641-39.549 24.8 0 26.637 22.961 26.637 40.962v74.986h46.216V286.9c-.001-7.938-.429-15.307-1.273-22.113zM167.409 140.472c-14.884 0-26.935 12.049-26.935 26.935s12.051 26.933 26.935 26.933c14.883 0 26.93-12.047 26.93-26.933s-12.047-26.935-26.93-26.935z" fill="#FFF" fill-rule="evenodd"/>
</svg>
