<svg height="512" width="512" xmlns="http://www.w3.org/2000/svg">
  <path d="M437.013 74.992C390.803 28.641 326.732 0 256 0 185.41 0 121.343 28.641 74.988 74.992 28.634 121.338 0 185.269 0 256.005c0 70.726 28.634 134.657 74.988 181.013C121.343 483.364 185.41 512 256 512c70.732 0 134.803-28.636 181.013-74.982C483.367 390.662 512 326.73 512 256.005c0-70.736-28.633-134.667-74.987-181.013z"/>
  <path clip-rule="evenodd" d="M384.711 251.325c-.142-7.225-1.136-14.313-2.41-21.26-1.702-8.366-4.11-16.443-7.374-24.244-3.397-7.654-7.225-14.878-12.049-21.972-4.673-6.795-9.918-13.041-15.731-18.993-5.812-5.665-12.332-11.193-19.135-15.727-6.806-4.68-14.179-8.512-21.833-11.919-7.656-3.247-16.017-5.811-24.095-7.366-8.504-1.691-17.297-2.691-26.084-2.691-8.646 0-17.436 1-25.942 2.691-8.075 1.555-16.438 4.12-24.095 7.366-7.653 3.408-15.166 7.239-21.972 11.919-6.662 4.534-13.326 10.062-18.993 15.727-5.952 5.952-11.2 12.197-15.731 18.993-4.824 7.093-8.795 14.318-11.769 21.972-3.542 7.8-5.952 15.878-7.653 24.244-1.419 6.513-2.268 13.323-2.411 19.841-.285 1.979-.285 3.968-.285 6.24 0 8.639.855 17.297 2.696 25.793 1.701 8.371 4.111 16.443 7.653 24.238 2.974 7.654 6.944 14.884 11.769 21.973a131.223 131.223 0 0 0 15.731 18.997c5.667 5.952 12.331 11.192 18.993 15.731 6.806 4.539 14.318 8.507 21.972 11.769 7.656 3.397 16.02 5.952 24.095 7.653 8.507 1.848 17.297 2.408 25.942 2.408 8.787 0 17.58-.561 26.084-2.408 8.078-1.701 16.438-4.256 24.095-7.653 7.654-3.262 15.027-7.229 21.833-11.769 6.803-4.539 13.323-9.779 19.135-15.731a152.38 152.38 0 0 0 15.731-18.997c4.824-7.089 8.651-14.318 12.049-21.973 3.264-7.795 5.672-15.867 7.374-24.238 1.698-8.496 2.693-17.291 2.693-25.793 0-1.847 0-3.256-.283-4.821zM256 146.006c27.785 0 53.44 10.354 72.719 27.358-.285.429-16.02 24.244-57.408 39.833-18.713-34.593-39.549-61.946-41.106-64.067 8.359-1.988 16.866-3.124 25.795-3.124zm-26.223 3.125s-.142.142-.427.142c.286-.001.286-.142.427-.142zm-20.838 7.366c1.56 1.984 21.972 29.62 40.967 63.501-52.73 14.03-98.653 13.318-101.493 13.318 7.228-34.158 29.906-62.365 60.526-76.819zm-34.727 173.076c-17.574-19.433-28.204-45.226-28.204-73.427 0-1.419 0-2.418.139-3.544 1.84 0 56.274 1.272 112.972-15.741 3.12 6.104 6.099 12.485 8.934 18.856-1.563.141-2.979.576-4.397 1.277-59.531 18.993-89.442 72.433-89.442 72.433v.146zM256 366.141c-25.513 0-48.901-8.795-67.611-23.391 0 0-.995-.711-2.408-1.979.707.707 1.555 1.268 2.408 1.979.28-.429 21.548-46.209 86.463-68.752.283 0 .427-.141.712-.141 15.446 40.258 21.828 73.997 23.389 83.488-13.183 5.534-27.642 8.796-42.953 8.796zm61.519-18.857c-1.134-6.649-6.942-38.839-21.401-78.526 35.578-5.67 66.337 3.969 68.747 4.686-5.104 30.755-22.538 57.26-47.346 73.84zm-27.922-95.959c-.995-1.979-1.843-3.827-2.413-5.67-1.843-3.973-3.542-7.659-5.241-11.627-.706-1.414-1.418-2.837-2.271-4.392 43.515-17.716 61.097-43.09 61.521-43.519 13.608 16.59 22.537 37.43 24.523 60.109.145 2.827.427 5.659.427 8.784-1.566-.419-38.982-8.507-76.546-3.685z" fill="#FFF" fill-rule="evenodd"/>
</svg>
